<svg width="81" height="80" viewBox="0 0 81 80" fill="none" xmlns="http://www.w3.org/2000/svg">
<path fill-rule="evenodd" clip-rule="evenodd" d="M37.2017 0C36.9867 0 36.8125 0.174239 36.8125 0.389175V6.41016C36.8059 6.41016 36.7993 6.41016 36.7927 6.41016C16.4727 6.41016 0 22.8842 0 43.206C0 63.5278 16.4727 80.0019 36.7927 80.0019C57.1124 80.0019 73.5848 63.5285 73.5855 43.2073H79.6216C79.8366 43.2073 80.0109 43.0329 80.0109 42.8179C80.0109 19.175 60.8446 0 37.2017 0ZM55.1891 43.2073H73.5855V43.206C73.5855 22.8908 57.1235 6.42084 36.8125 6.41016V24.8081C36.8059 24.8081 36.7993 24.8081 36.7927 24.8081C26.6327 24.8081 18.3964 33.0451 18.3964 43.206C18.3964 53.3669 26.6327 61.604 36.7927 61.604C46.9524 61.604 55.1884 53.3676 55.1891 43.2073ZM55.1891 43.2073H37.8125C37.2602 43.2073 36.8125 42.7595 36.8125 42.2073V24.8081C46.9635 24.8188 55.1891 33.0517 55.1891 43.206V43.2073Z" fill="#A59DFF"/>
</svg>
