<svg width="80" height="80" viewBox="0 0 80 80" fill="none" xmlns="http://www.w3.org/2000/svg">
<path fill-rule="evenodd" clip-rule="evenodd" d="M3.58925e-05 18.5182C3.59195e-05 18.2093 0.25099 17.9588 0.55995 17.9588C6.58202 17.9588 12.4036 18.8246 17.9063 20.4385L17.9063 62.0408L59.5946 62.0408C61.2223 67.558 62.0959 73.3977 62.0959 79.4411C62.0959 79.7498 61.8457 80 61.537 80L1.00003 80C0.447746 80 3.05567e-05 79.5523 3.0605e-05 79L3.58925e-05 18.5182ZM59.5946 62.0408L80.0024 62.0408L80.0024 -0.000106812L17.9063 -0.00011224L17.9063 20.4385C37.9087 26.3051 53.6986 42.0567 59.5946 62.0408Z" fill="#A59DFF"/>
</svg>
