<svg width="80" height="80" viewBox="0 0 80 80" fill="none" xmlns="http://www.w3.org/2000/svg">
<path fill-rule="evenodd" clip-rule="evenodd" d="M47.3251 39.9592C47.3251 53.0277 36.731 63.6218 23.6625 63.6218C23.5653 63.6218 23.4681 63.6212 23.3711 63.62L23.3711 16.2984C23.4681 16.2973 23.5653 16.2967 23.6625 16.2967C36.731 16.2967 47.3251 26.8908 47.3251 39.9592ZM23.3711 16.2984C10.4369 16.4546 -2.31716e-06 26.9881 -1.75017e-06 39.9592C-1.18319e-06 52.9304 10.4369 63.4639 23.3711 63.62L23.3711 79.9985L39.999 79.9985C62.0901 79.9985 79.9984 62.0902 79.9984 39.9992C79.9984 17.9081 62.0901 -0.00018582 39.999 -0.000184854L23.3711 -0.000184127L23.3711 16.2984Z" fill="#A59DFF"/>
</svg>
